<svg width="78" height="54" viewBox="0 0 78 54" fill="none" xmlns="http://www.w3.org/2000/svg">
<mask id="mask0_6_79" style="mask-type:luminance" maskUnits="userSpaceOnUse" x="0" y="0" width="78" height="54">
<path d="M77.08 0H0V53.0363H77.08V0Z" fill="white"/>
</mask>
<g mask="url(#mask0_6_79)">
<mask id="mask1_6_79" style="mask-type:luminance" maskUnits="userSpaceOnUse" x="0" y="0" width="78" height="54">
<path d="M77.08 0H0V53.0363H77.08V0Z" fill="white"/>
</mask>
<g mask="url(#mask1_6_79)">
<g style="mix-blend-mode:multiply">
<mask id="mask2_6_79" style="mask-type:luminance" maskUnits="userSpaceOnUse" x="-15" y="-13" width="107" height="67">
<path d="M91.6696 -12.8389H-14.5896V53.6199H91.6696V-12.8389Z" fill="white"/>
</mask>
<g mask="url(#mask2_6_79)">
<path d="M-1.52588e-05 18.7505H8.50867V22.3454H3.78746V25.1174H8.07681V28.333H3.78746V34.2855H-1.52588e-05V18.7505Z" fill="#231F20"/>
<path d="M14.5371 27.5277C16.2879 27.5277 17.1924 26.4364 17.1924 24.9891C17.1924 23.5418 16.2704 22.468 14.5371 22.468H13.7843V27.5335H14.5371V27.5277ZM16.889 34.2856L15.5876 31.1401C15.2316 31.1984 14.8347 31.2159 14.4204 31.2159H13.7784V34.3031H9.99681V18.7681H13.8777C18.9957 18.7681 20.8982 21.7619 20.8982 24.9833C20.8982 26.8099 20.2738 28.5606 18.9198 29.7278L21.2717 34.2856H16.8831H16.889Z" fill="#231F20"/>
<path d="M31.8754 29.4069L29.8621 23.2851L27.8487 29.4069H31.8754ZM32.8559 32.3598H26.8683L26.2263 34.2798H22.2521L27.9012 18.7856H31.8171L37.3728 34.2798H33.492L32.85 32.3598H32.8559Z" fill="#231F20"/>
<path d="M38.3708 18.7681H42.1932L46.7102 27.3584V18.7681H50.5152V34.2856H46.7452L42.1757 25.6252V34.2856H38.3708V18.7681Z" fill="#231F20"/>
<path d="M52.2834 26.5299C52.2834 22.2172 55.8258 18.6223 60.3427 18.6223V22.4273C57.8742 22.4273 56.0884 24.2714 56.0884 26.5299C56.0884 28.7884 57.88 30.6325 60.3427 30.6325V34.4141C55.8258 34.4141 52.2834 30.8368 52.2834 26.5241" fill="#231F20"/>
<path d="M69.0382 22.2754C66.5696 22.2754 64.7838 24.1954 64.7838 26.5123C64.7838 28.8291 66.5754 30.7666 69.0382 30.7666C71.5009 30.7666 73.275 28.8291 73.275 26.5123C73.275 24.1954 71.4834 22.2754 69.0382 22.2754ZM69.0382 34.5716C64.352 34.5716 60.9789 30.825 60.9789 26.5123C60.9789 22.1996 64.3461 18.4705 69.0382 18.4705C73.7302 18.4705 77.08 22.2171 77.08 26.5064C77.08 30.7958 73.7127 34.5658 69.0382 34.5658" fill="#231F20"/>
<path d="M8.13517 48.5952L6.06344 45.3213C4.37104 45.4906 3.76411 46.3776 3.76411 47.3172C3.76411 48.5602 4.65116 49.2955 5.92921 49.2955C6.53031 49.2955 7.359 49.0855 8.13517 48.6011M12.2786 49.6924L14.1986 52.762H10.7905L10.0727 51.6532C8.6779 52.5578 7.07888 53.048 5.49736 53.048C2.63779 53.048 -1.52588e-05 51.128 -1.52588e-05 47.6265C-1.52588e-05 45.1988 1.50564 43.127 4.21931 42.4501L0.92205 37.2737H10.7671V40.8861H6.73456L10.0668 46.1967C10.3295 45.5197 10.4812 44.7086 10.4812 43.769H14.3387C14.3387 46.1208 13.5275 48.1576 12.267 49.6982" fill="#231F20"/>
<path d="M41.2245 38.464C37.5362 38.464 34.6942 41.3469 34.6942 44.9768C34.6942 48.6067 37.5362 51.5072 41.2245 51.5072C44.9127 51.5072 47.7373 48.6067 47.7373 44.971C47.7373 41.3353 44.8952 38.4582 41.2245 38.4582M41.2245 53.0303C36.5383 53.0303 33.1652 49.2837 33.1652 44.971C33.1652 40.6758 36.5324 36.9292 41.2245 36.9292C45.9165 36.9292 49.2663 40.6758 49.2663 44.9652C49.2663 49.2545 45.8932 53.0245 41.2245 53.0245" fill="#231F20"/>
<path d="M29.7745 47.9999C28.7066 50.0424 26.5123 51.5131 23.9445 51.5131C20.2154 51.5131 17.4142 48.4842 17.4142 45.0002C17.4142 41.5162 20.2212 38.4641 23.9445 38.4641C26.5006 38.4641 28.7007 39.9289 29.7687 41.9773H31.4378C30.2531 39.0827 27.341 36.9409 23.9445 36.9409C19.3867 36.9409 15.8852 40.6875 15.8852 45.0002C15.8852 49.3129 19.3867 53.0362 23.9445 53.0362C27.3468 53.0362 30.2706 50.9003 31.4436 47.9999H29.7745Z" fill="#231F20"/>
<path d="M3.63572 1.75067H-1.52588e-05V0.280029H8.79462V1.75067H5.15888V15.8151H3.63572V1.75067Z" fill="#231F20"/>
<path d="M12.728 0.321045H11.2048V15.8152H12.728V0.321045Z" fill="#231F20"/>
<path d="M41.2245 1.52311C37.5362 1.52311 34.6942 4.40603 34.6942 8.03593C34.6942 11.6658 37.5362 14.5663 41.2245 14.5663C44.9127 14.5663 47.7373 11.6658 47.7373 8.03009C47.7373 4.39435 44.8952 1.51728 41.2245 1.51728M41.2245 16.0894C36.5383 16.0894 33.1652 12.3428 33.1652 8.03009C33.1652 3.71739 36.5324 -0.0117188 41.2245 -0.0117188C45.9165 -0.0117188 49.2663 3.7349 49.2663 8.03009C49.2663 12.3253 45.8932 16.0894 41.2245 16.0894Z" fill="#231F20"/>
<path d="M29.7745 11.059C28.7066 13.1015 26.5123 14.5721 23.9445 14.5721C20.2154 14.5721 17.4142 11.5433 17.4142 8.05932C17.4142 4.57531 20.2212 1.52316 23.9445 1.52316C26.5006 1.52316 28.7007 2.98796 29.7687 5.03634H31.4378C30.2531 2.14176 27.341 0 23.9445 0C19.3867 0 15.8852 3.74662 15.8852 8.05932C15.8852 12.372 19.3867 16.0953 23.9445 16.0953C27.3468 16.0953 30.2706 13.9594 31.4436 11.059H29.7745Z" fill="#231F20"/>
</g>
</g>
</g>
</g>
</svg>
