<svg width="18" height="18" viewBox="0 0 18 18" fill="none" xmlns="http://www.w3.org/2000/svg">
<path d="M5.92157 17.7018H0V0H13.8154V5.85945H11.8416V1.97155H1.97386V15.7295H5.92157V17.7018Z" fill="black"/>
<path d="M5.92078 3.88721H3.94769V5.85876H5.92078V3.88721Z" fill="black"/>
<path d="M5.92078 7.83484H3.94769V9.80639H5.92078V7.83484Z" fill="black"/>
<path d="M5.92078 11.7826H3.94769V13.7541H5.92078V11.7826Z" fill="black"/>
<path d="M17.7041 17.7018H15.7303V9.80639H9.86777V17.7018H7.89392V7.83484H17.7041V17.7018Z" fill="black"/>
<path d="M13.8155 11.7826H11.8416V13.7541H13.8155V11.7826Z" fill="black"/>
<path d="M13.8155 15.7295H11.8416V17.701H13.8155V15.7295Z" fill="black"/>
<path d="M9.86777 3.88721H7.89392V5.85876H9.86777V3.88721Z" fill="black"/>
</svg>
