<svg width="18" height="18" viewBox="0 0 18 18" fill="none" xmlns="http://www.w3.org/2000/svg">
<path d="M17.7049 17.7041H16.7179C7.50049 17.7041 0 10.2051 0 0.986159V0H5.86328V0.986159C5.86328 2.50374 6.22523 4.08957 6.93916 5.69534L7.34022 6.59485L5.53661 7.39697L5.13555 6.49516C4.45996 4.97528 4.05583 3.45769 3.93161 1.97155H2.00683C2.49377 9.31868 8.38466 15.2096 15.731 15.6973V13.7219C14.1812 13.6099 12.6928 13.228 11.2074 12.5678L10.3064 12.166L11.1093 10.3623L12.0111 10.7642C13.5486 11.4497 15.0884 11.7841 16.7172 11.7841H17.7041V17.7033L17.7049 17.7041Z" fill="black"/>
<path d="M17.7049 7.89312H15.731V6.90696C15.731 4.18543 13.5171 1.97155 10.7964 1.97155H9.80945V0H10.7964C14.6061 0 17.7041 3.09728 17.7041 6.90696V7.89312H17.7049Z" fill="black"/>
<path d="M13.7572 7.89316H11.7833C11.7833 6.80501 10.8984 5.91931 9.80945 5.91931V3.94775C11.9865 3.94775 13.7572 5.71763 13.7572 7.89316Z" fill="black"/>
</svg>
