<svg width="18" height="14" viewBox="0 0 18 14" fill="none" xmlns="http://www.w3.org/2000/svg">
<path d="M14.7426 0H2.95925C1.32741 0 0 1.32817 0 2.95925V10.8539C0 12.4857 1.32817 13.8131 2.95925 13.8131H14.7426C16.3476 13.8131 17.7033 12.4574 17.7033 10.8539V2.95925C17.7033 1.35578 16.3476 0 14.7426 0ZM2.95925 1.97155H14.7426C15.0784 1.97155 15.3867 2.1602 15.5669 2.43319L8.87851 5.80347L2.13642 2.43243C2.31587 2.1602 2.62414 1.97155 2.95925 1.97155ZM14.7426 11.8424H2.95925C2.43396 11.8424 1.97309 11.3807 1.97309 10.8547V4.55581L8.88235 8.01121L15.7295 4.56272V10.8554C15.7295 11.3815 15.2686 11.8431 14.7426 11.8431V11.8424Z" fill="black"/>
</svg>
